<?xml version="1.0" encoding="utf-8"?>
<!-- Uploaded to: SVG Repo, www.svgrepo.com, Generator: SVG Repo Mixer Tools -->
<svg width="800px" height="800px" viewBox="0 0 1024 1024" class="icon"  version="1.1" xmlns="http://www.w3.org/2000/svg"><path d="M85.333333 192v682.666667s179.2-64 426.666667-64 426.666667 64 426.666667 64V192s-142.933333 64-426.666667 64S85.333333 192 85.333333 192z" fill="#F57C00" /><path d="M512 725.333333h8.533333L320 405.333333 147.2 772.266667c72.533333-19.2 204.8-46.933333 364.8-46.933334z" fill="#942A09" /><path d="M512 725.333333c70.4 0 134.4 4.266667 192 12.8l-170.666667-251.733333-166.4 245.333333c44.8-4.266667 93.866667-6.4 145.066667-6.4z" fill="#BF360C" /><path d="M868.266667 768L746.666667 565.333333l-106.666667 166.4c96 8.533333 174.933333 23.466667 228.266667 36.266667z" fill="#E65100" /><path d="M725.333333 416a53.333333 42.666667 90 1 0 85.333334 0 53.333333 42.666667 90 1 0-85.333334 0Z" fill="#FFF9C4" /></svg>