<?xml version="1.0" encoding="iso-8859-1"?>
<!-- Uploaded to: SVG Repo, www.svgrepo.com, Generator: SVG Repo Mixer Tools -->
<svg height="800px" width="800px" version="1.1" id="Layer_1" xmlns="http://www.w3.org/2000/svg" xmlns:xlink="http://www.w3.org/1999/xlink" 
	 viewBox="0 0 512 512" xml:space="preserve">
<g transform="translate(1 1)">
	<g>
		<path style="fill:#FFE100;" d="M348.867,511c-28.16,0-51.2-23.04-51.2-51.2v-51.2c0-18.773-15.36-34.133-34.133-34.133
			S229.4,389.827,229.4,408.6v51.2c0,28.16-23.04,51.2-51.2,51.2S127,487.96,127,459.8v-68.267c0-28.16-23.04-51.2-51.2-51.2
			c-5.12,0-8.533-3.413-8.533-8.533s3.413-8.533,8.533-8.533c37.547,0,68.267,30.72,68.267,68.267V459.8
			c0,18.773,15.36,34.133,34.133,34.133s34.133-15.36,34.133-34.133v-51.2c0-28.16,23.04-51.2,51.2-51.2
			c28.16,0,51.2,23.04,51.2,51.2v51.2c0,18.773,15.36,34.133,34.133,34.133c18.773,0,34.133-15.36,34.133-34.133V383
			c0-35.84,27.307-59.733,68.267-59.733c5.12,0,8.533,3.413,8.533,8.533s-3.413,8.533-8.533,8.533
			c-23.893,0-51.2,11.093-51.2,42.667v76.8C400.067,487.96,377.027,511,348.867,511z"/>
		<path style="fill:#FFE100;" d="M109.933,58.733c0,28.16-23.04,51.2-51.2,51.2s-51.2-23.04-51.2-51.2s23.04-51.2,51.2-51.2
			S109.933,30.573,109.933,58.733"/>
		<path style="fill:#FFE100;" d="M476.867,58.733c0,28.16-23.04,51.2-51.2,51.2c-5.12,0-25.6-23.04-25.6-51.2s20.48-51.2,25.6-51.2
			C453.827,7.533,476.867,30.573,476.867,58.733"/>
	</g>
	<path style="fill:#FFA800;" d="M451.267,7.533c-4.267,0-8.533,0.853-12.8,1.707c22.187,5.973,38.4,25.6,38.4,49.493
		s-16.213,43.52-38.4,49.493c4.267,0.853,8.533,1.707,12.8,1.707c28.16,0,51.2-23.04,51.2-51.2S479.427,7.533,451.267,7.533"/>
	<path style="fill:#FFFFFF;" d="M58.733,109.933c4.267,0,8.533-0.853,12.8-1.707c-22.187-5.973-38.4-25.6-38.4-49.493
		s16.213-43.52,38.4-49.493C67.267,8.387,63,7.533,58.733,7.533c-28.16,0-51.2,23.04-51.2,51.2S30.573,109.933,58.733,109.933"/>
	<g>
		<path style="fill:#FFE100;" d="M502.467,511c-2.56,0-4.267-0.853-5.973-2.56L95.427,107.373c-3.413-3.413-3.413-8.533,0-11.947
			s8.533-3.413,11.947,0L508.44,496.493c3.413,3.413,3.413,8.533,0,11.947C506.733,510.147,505.027,511,502.467,511z"/>
		<path style="fill:#FFE100;" d="M24.6,502.467c-2.56,0-4.267-0.853-5.973-2.56c-3.413-3.413-3.413-8.533,0-11.947l401.067-396.8
			c3.413-3.413,8.533-3.413,11.947,0c3.413,3.413,3.413,8.533,0,11.947l-401.067,396.8C28.867,501.613,27.16,502.467,24.6,502.467z"
			/>
	</g>
	<path d="M58.733,118.467C25.453,118.467-1,92.013-1,58.733S25.453-1,58.733-1s59.733,26.453,59.733,59.733
		S92.013,118.467,58.733,118.467z M58.733,16.067c-23.893,0-42.667,18.773-42.667,42.667S34.84,101.4,58.733,101.4
		S101.4,82.627,101.4,58.733S82.627,16.067,58.733,16.067z"/>
	<path d="M451.267,118.467c-33.28,0-59.733-26.453-59.733-59.733S417.987-1,451.267-1S511,25.453,511,58.733
		S484.547,118.467,451.267,118.467z M451.267,16.067c-23.893,0-42.667,18.773-42.667,42.667s18.773,42.667,42.667,42.667
		c23.893,0,42.667-18.773,42.667-42.667S475.16,16.067,451.267,16.067z"/>
	<path d="M493.933,511c-2.56,0-4.267-0.853-5.973-2.56L86.893,107.373c-3.413-3.413-3.413-8.533,0-11.947s8.533-3.413,11.947,0
		l401.067,401.067c3.413,3.413,3.413,8.533,0,11.947C498.2,510.147,496.493,511,493.933,511z"/>
	<path d="M16.067,502.467c-2.56,0-4.267-0.853-5.973-2.56c-3.413-3.413-3.413-8.533,0-11.947L411.16,91.16
		c3.413-3.413,8.533-3.413,11.947,0c3.413,3.413,3.413,8.533,0,11.947L22.04,499.907C20.333,501.613,18.627,502.467,16.067,502.467z
		"/>
	<path d="M340.333,511c-28.16,0-51.2-23.04-51.2-51.2v-51.2c0-18.773-15.36-34.133-34.133-34.133s-34.133,15.36-34.133,34.133v51.2
		c0,28.16-23.04,51.2-51.2,51.2s-51.2-23.04-51.2-51.2v-68.267c0-28.16-23.04-51.2-51.2-51.2c-5.12,0-8.533-3.413-8.533-8.533
		s3.413-8.533,8.533-8.533c37.547,0,68.267,30.72,68.267,68.267V459.8c0,18.773,15.36,34.133,34.133,34.133
		S203.8,478.573,203.8,459.8v-51.2c0-28.16,23.04-51.2,51.2-51.2s51.2,23.04,51.2,51.2v51.2c0,18.773,15.36,34.133,34.133,34.133
		s34.133-15.36,34.133-34.133V383c0-35.84,27.307-59.733,68.267-59.733c5.12,0,8.533,3.413,8.533,8.533s-3.413,8.533-8.533,8.533
		c-23.893,0-51.2,11.093-51.2,42.667v76.8C391.533,487.96,368.493,511,340.333,511z"/>
	<path d="M41.667,75.8c-5.12,0-8.533-3.413-8.533-8.533c0-18.773,15.36-34.133,34.133-34.133c5.12,0,8.533,3.413,8.533,8.533
		S72.387,50.2,67.267,50.2C57.88,50.2,50.2,57.88,50.2,67.267C50.2,72.387,46.787,75.8,41.667,75.8z"/>
	<path d="M434.2,75.8c-5.12,0-8.533-3.413-8.533-8.533c0-18.773,15.36-34.133,34.133-34.133c5.12,0,8.533,3.413,8.533,8.533
		S464.92,50.2,459.8,50.2c-9.387,0-17.067,7.68-17.067,17.067C442.733,72.387,439.32,75.8,434.2,75.8z"/>
</g>
</svg>