<?xml version="1.0" encoding="iso-8859-1"?>
<!-- Uploaded to: SVG Repo, www.svgrepo.com, Generator: SVG Repo Mixer Tools -->
<svg height="800px" width="800px" version="1.1" id="Layer_1" xmlns="http://www.w3.org/2000/svg" xmlns:xlink="http://www.w3.org/1999/xlink" 
	 viewBox="0 0 482.078 482.078" xml:space="preserve">
<path style="fill:#E65039;" d="M327.999,209.039l-176-24v-48c0-48.6,39.4-88,88-88l0,0c48.6,0,88,39.4,88,88V209.039z"/>
<path style="fill:#EB7361;" d="M239.999,49.039c-48.6,0-88,39.4-88,88v24c0-48.6,39.4-88,88-88s88,39.4,88,88v-24
	C327.999,88.439,288.599,49.039,239.999,49.039z"/>
<path style="fill:#E65039;" d="M151.999,185.039l-144-16c0,0,4,98.664,80,128s152-16,152-16s84,53.336,168,32s64-32,64-32l-144-72
	L151.999,185.039z"/>
<g>
	<polygon style="fill:#FCB641;" points="151.999,145.039 327.999,169.039 327.999,209.039 151.999,185.039 	"/>
	<path style="fill:#FCB641;" d="M191.999,393.039h-32c-8.84,0-16-7.16-16-16v-24c0-8.84,7.16-16,16-16h48c8.84,0,16,7.16,16,16v8
		C223.999,378.711,209.671,393.039,191.999,393.039z"/>
</g>
<g>
	<path style="fill:#FDC567;" d="M191.999,393.039h-32c-8.84,0-16-7.16-16-16v-24c0-8.84,7.16-16,16-16h48c8.84,0,16,7.16,16,16v8
		C223.999,378.711,209.671,393.039,191.999,393.039z"/>
	<path style="fill:#FDC567;" d="M287.999,393.039h32c8.84,0,16-7.16,16-16v-24c0-8.84-7.16-16-16-16h-48c-8.84,0-16,7.16-16,16v8
		C255.999,378.711,270.327,393.039,287.999,393.039z"/>
</g>
<path d="M475.575,273.879l-139.576-69.784v-23.96l13.472,4.488c0.84,0.28,1.696,0.416,2.528,0.416c3.352,0,6.472-2.12,7.584-5.472
	c1.4-4.192-0.864-8.728-5.056-10.12l-8.488-2.832l10.392-6.928c3.68-2.456,4.672-7.416,2.216-11.096
	c-2.448-3.672-7.416-4.672-11.096-2.216l-11.552,7.72v-17.056c0-52.936-43.064-96-96-96s-96,43.064-96,96v8v31.064L8.879,161.087
	c-2.296-0.232-4.632,0.504-6.336,2.104c-1.712,1.592-2.632,3.84-2.536,6.168c0.168,4.248,5.136,104.272,85.112,135.144
	c69.264,26.736,137.168-4.904,154.728-14.224c14.816,8.592,66.528,35.848,126.224,35.848c14.304,0,29.08-1.568,43.896-5.336
	c61.464-15.608,70.944-26.056,72.024-35.016C482.663,280.279,479.343,275.887,475.575,273.879z M159.999,178.055v-23.848l160,21.824
	v23.848L159.999,178.055z M239.999,57.039c44.112,0,80,35.888,80,80v22.832l-160-21.816v-1.016
	C159.999,92.927,195.887,57.039,239.999,57.039z M406.031,305.287c-79.552,20.168-160.936-30.496-161.752-31.008
	c-0.016-0.008-0.04-0.016-0.056-0.024c-0.096-0.056-0.208-0.08-0.304-0.136c-0.744-0.424-1.536-0.696-2.36-0.864
	c-0.128-0.024-0.232-0.112-0.368-0.136c-43.568-6.56-58.136-27.904-58.44-28.376c-2.352-3.704-7.248-4.808-10.984-2.504
	c-3.752,2.336-4.896,7.264-2.568,11.024c0.592,0.944,12.712,19.672,46.688,30.408c-26.64,10.84-76.096,24.784-125.008,5.912
	c-56.816-21.928-70.704-87.04-73.944-111.464l133.976,14.92c0.008,0,0.008,0,0.008,0l174.688,23.784l137.472,68.712
	C457.511,289.103,443.047,295.879,406.031,305.287z"/>
<path d="M319.999,329.039h-48c-10.416,0-19.216,6.712-22.528,16h-18.952c-3.312-9.288-12.112-16-22.528-16h-48
	c-13.232,0-24,10.768-24,24v24c0,13.232,10.768,24,24,24h32c22.056,0,40-17.944,40-40h16c0,22.056,17.944,40,40,40h32
	c13.232,0,24-10.768,24-24v-24C343.999,339.807,333.231,329.039,319.999,329.039z M215.999,361.039c0,13.232-10.768,24-24,24h-32
	c-4.416,0-8-3.584-8-8v-24c0-4.416,3.584-8,8-8h48c4.416,0,8,3.584,8,8V361.039z M327.999,377.039c0,4.416-3.584,8-8,8h-32
	c-13.232,0-24-10.768-24-24v-8c0-4.416,3.584-8,8-8h48c4.416,0,8,3.584,8,8V377.039z"/>
<path d="M255.999,425.039h-32c-4.424,0-8,3.576-8,8s3.576,8,8,8h32c4.424,0,8-3.576,8-8S260.423,425.039,255.999,425.039z"/>
</svg>