<?xml version="1.0" encoding="iso-8859-1"?>
<!-- Uploaded to: SVG Repo, www.svgrepo.com, Generator: SVG Repo Mixer Tools -->
<svg version="1.1" id="Layer_1" xmlns="http://www.w3.org/2000/svg" xmlns:xlink="http://www.w3.org/1999/xlink" 
	 viewBox="0 0 512.001 512.001" xml:space="preserve">
<g>
	<rect x="231.984" y="66.899" style="fill:#A7A9AC;" width="42.815" height="101.333"/>
	<rect x="29.28" y="101.151" style="fill:#A7A9AC;" width="53.519" height="224.781"/>
</g>
<path style="fill:#0EDDF0;" d="M459.619,299.708h-53.519v-59.406H82.8v-53.519h350.059c14.779,0,26.76,11.981,26.76,26.76V299.708z"
	/>
<rect x="178.465" y="168.232" style="fill:#EFEFEF;" width="149.854" height="90.983"/>
<path style="fill:#0EDDF0;" d="M468.731,465.982c0,19.503-15.811,35.315-35.315,35.315c-19.505,0-35.315-15.811-35.315-35.315
	c0-19.503,35.315-58.522,35.315-58.522S468.731,446.478,468.731,465.982z"/>
<rect x="381.035" y="299.708" style="fill:#EFEFEF;" width="101.686" height="53.519"/>
<path style="fill:#F7941E;" d="M345.889,18.732h-71.27c-5.66-4.992-13.088-8.028-21.229-8.028c-8.141,0-15.569,3.036-21.229,8.028
	h-71.27c-8.03,0-14.539,6.51-14.539,14.539v19.088c0,8.03,6.51,14.539,14.539,14.539h71.27c5.66,4.992,13.088,8.028,21.229,8.028
	s15.569-3.036,21.229-8.028h71.27c8.03,0,14.539-6.51,14.539-14.539V33.271C360.429,25.242,353.919,18.732,345.889,18.732z"/>
<g>
	<path style="fill:#231F20;" d="M433.416,396.756c-3.024,0-5.907,1.279-7.936,3.522c-6.359,7.026-38.082,43.216-38.082,65.704
		c0,25.376,20.643,46.019,46.018,46.019c25.375,0,46.019-20.645,46.019-46.019c0-22.489-31.724-58.678-38.083-65.704
		C439.323,398.034,436.439,396.756,433.416,396.756z M433.416,490.592c-13.57,0-24.61-11.04-24.61-24.611
		c0-7.878,11.678-26.176,24.61-42.073c12.933,15.896,24.611,34.194,24.611,42.073C458.027,479.552,446.987,490.592,433.416,490.592z
		"/>
	<path style="fill:#231F20;" d="M482.721,289.004h-12.398v-75.462c0-20.657-16.806-37.463-37.463-37.463h-93.837v-7.849
		c0-5.912-4.793-10.704-10.704-10.704h-42.815V77.603h60.388c13.919,0,25.243-11.325,25.243-25.243V33.271
		c0-13.919-11.324-25.243-25.243-25.243h-67.549C271.095,2.826,262.383,0,253.391,0s-17.704,2.826-24.951,8.028h-67.549
		c-13.919,0-25.243,11.325-25.243,25.243v19.088c0,13.919,11.324,25.243,25.243,25.243h60.388v79.922h-42.815
		c-5.911,0-10.704,4.792-10.704,10.704v7.849H93.503V101.15c0-5.912-4.793-10.704-10.704-10.704H29.28
		c-5.911,0-10.704,4.792-10.704,10.704v224.781c0,5.912,4.793,10.704,10.704,10.704H82.8c5.911,0,10.704-4.792,10.704-10.704
		v-74.927h74.257v8.207c0,5.912,4.793,10.704,10.704,10.704h149.854c5.911,0,10.704-4.792,10.704-10.704v-8.206h56.374v37.999
		h-14.361c-5.911,0-10.704,4.792-10.704,10.704v53.519c0,5.912,4.793,10.704,10.704,10.704h101.686
		c5.911,0,10.704-4.792,10.704-10.704v-53.519C493.425,293.796,488.631,289.004,482.721,289.004z M157.056,52.36V33.271
		c0-2.115,1.72-3.835,3.835-3.835h71.27c2.607,0,5.125-0.952,7.081-2.676c3.911-3.451,8.937-5.352,14.148-5.352
		c5.212,0,10.236,1.9,14.148,5.352c1.956,1.724,4.474,2.676,7.081,2.676h71.27c2.115,0,3.835,1.72,3.835,3.835v19.088
		c0,2.115-1.72,3.835-3.835,3.835h-71.27c-2.607,0-5.125,0.952-7.081,2.676c-3.911,3.451-8.937,5.352-14.148,5.352
		c-5.212,0-10.236-1.9-14.148-5.352c-1.956-1.724-4.474-2.676-7.081-2.676h-71.27C158.776,56.195,157.056,54.475,157.056,52.36z
		 M242.687,84.263c3.47,0.897,7.063,1.368,10.704,1.368c3.64,0,7.234-0.471,10.704-1.368v73.261h-21.408V84.263z M72.096,315.228
		H39.984V111.855h32.112V315.228z M93.503,229.597v-32.112h74.257v32.112H93.503z M317.614,248.508H189.168v-24.084h31.755
		c5.911,0,10.704-4.792,10.704-10.704c0-5.912-4.793-10.704-10.704-10.704h-31.755v-24.084h128.446V248.508z M406.099,229.597
		h-67.078v-32.112h93.837c8.853,0,16.056,7.203,16.056,16.056v75.462h-32.112v-48.702
		C416.803,234.389,412.01,229.597,406.099,229.597z M472.017,342.523h-80.279v-32.112h80.279V342.523z"/>
	<path style="fill:#231F20;" d="M268.734,224.245h2.476c5.911,0,10.704-4.792,10.704-10.704s-4.793-10.704-10.704-10.704h-2.476
		c-5.911,0-10.704,4.792-10.704,10.704S262.822,224.245,268.734,224.245z"/>
</g>
</svg>